<?xml version="1.0" encoding="utf-8"?>
<!-- Generator: Adobe Illustrator 28.1.0, SVG Export Plug-In . SVG Version: 6.00 Build 0)  -->
<svg version="1.0" id="katman_1" xmlns="http://www.w3.org/2000/svg" xmlns:xlink="http://www.w3.org/1999/xlink" x="0px" y="0px"
	 viewBox="0 0 627.1 622.1" style="enable-background:new 0 0 627.1 622.1;" xml:space="preserve">
<style type="text/css">
	.st0{fill:#242728FF;}
	.st1{fill:#D54B10FF;}
</style>
<path class="st0" d="M305.9,487.6l0-70.4l-0.3-2.8l-0.8-2.9l-1.7-4.3l-2.1-4.4l-2.4-4.6l-2.8-4.7l-2.9-4.4l-2.9-4l-3-3.7l-3-3.3
	l-3-3l-3.2-2.8l-3.3-2.5l-3.5-2.2l-4.5-2.4l-4.9-2.1l-17.1-6.7l-7.2-3.1l-7-3.4l-7.9-4.2l-7.7-4.6l-7.5-5l-7.2-5.3l-7-5.6l-6.7-5.9
	l-6.5-6.2l-6.3-6.5l-6-6.8l-5.7-7.1l-5.4-7.4l-5.1-7.6l-4.8-7.8l-4.5-8.1l-4.1-8.3l-3.8-8.5l-3.4-8.6l-2.9-8.4l0-0.1l0.1-0.4
	l0.4-0.1l8.1,0.8l7.4,1.1l10.3,2.1l10.1,2.5l10,3l9.8,3.5l0,0l0,0l0,0l9.3,3.8l9.1,4.2l8.9,4.6l8.8,5.1l5.8,3.7l5.7,3.9l5.5,4.1
	l5.3,4.3l5,4.5l4.9,4.7l4.6,4.9l4.4,5l4.2,5.2l3.9,5.3l3.6,5.4l3.4,5.6l3.1,5.7l2.9,5.9l2.6,5.9l2.3,6l4.3,13l4.9,16.6l1.5,4.5
	l2,4.5l2.4,4.5l2.9,4.5l0.3,0.3l0.1-0.4l-0.2-74.8l-0.1-1.7l-0.4-2l-1.6-4.5L300,295l-4.1-7.2l-4.6-7l-5.1-6.9l-2.8-3.3l-3-3.1l0,0
	l-4.9-4.2l-5.4-3.8l-5.8-3.3l-6.3-2.8l-7-2.9l-6.7-3.3l-6.4-3.6l-6.1-3.9l-5.8-4.2l-5.5-4.5l-5.1-4.8l-4.8-5.1l-6.4-7.9l-5.7-8.3
	l-2.6-4.2l-2.4-4.3l-2.2-4.4l-2-4.5l0,0l0,0l-2.2-5.5l-1.9-5.6l-1.6-5.7l-1.4-5.8l-1.4-8l-1-8.1l-0.6-8.3l-0.2-8.4v0l0.2-0.2
	l0.3-0.1l5.6,1.5l5.6,2l6.2,2.6l6.1,2.8l6,3l5.8,3.2l5.6,3.4l5.5,3.6l5.3,3.8l5.1,4l4.9,4.2l4.7,4.4l4.5,4.6l4.3,4.7l4.1,4.9l3.9,5
	l3.7,5.2l3.4,5.4l4.5,7.9l4,8.2l3.5,8.5l3,8.8l5.8,18.1l2.6,7l3.3,7l3.9,7.1l4.6,7.1l0.5,0.5l0.2-0.7l0-64.8l-0.2-2l-0.6-2.1l-1-2.1
	l-1.3-2.1l-5.3-8.1l-4.9-8.3l-4.4-8.5l-4-8.7l0,0l0,0l-3.5-8.7l-3-8.9l-2.2-8.1l0,0l0,0L274,141l-1-5.9l-0.8-6l-0.5-6l-0.2-6.1
	l0-6.2l0.3-6.2l0.5-6.3l1-7.8l1.4-7.6l1.7-7.3l2.1-7l3-8.7l3.3-8.5l3.5-8.3l3.8-8.1l4.1-7.9l4.3-7.7l4.6-7.6l4.9-7.4l0,0l2.9-4.1
	l0,0l0.5-0.2l0.5,0.2l2,2.4l0.1,0.1l5.6,8.7l5.2,8.8l4.9,9l4.5,8.9l4.1,9l3.7,8.9l3.2,8.9l2.8,8.8l2.4,9.5l1.8,9.5l1.1,9.5l0.4,9.5
	l0,0l0,0l0,5.3l-0.3,5.3l-0.5,5.3l-0.7,5.3l-0.9,5.3l-1.1,5.3l-2.8,10.6l-1.9,6l-2.2,5.9l-2.4,5.9l-2.6,5.8l-2.9,5.9l-3.2,5.9
	l-3.4,6l-8,12.5l-0.8,1.6l-0.6,1.8l-0.3,2l-0.1,2.3l0.2,32.5l-0.1,31.9l0.1,0.3l0.3-0.2l3.5-5.1l4.5-7.9l3.9-8.3l2.3-6.4l2.7-9
	l1.6-5.5l2.1-6.6l2.3-6.4l2.6-6.3l2.8-6.1l3-5.9l3.3-5.8l3.5-5.6l3.8-5.4l0,0l0,0l0,0l6.1-7.9l6.7-7.5l7.2-7.1l7.7-6.7l4.8-3.7
	l5-3.5l5.2-3.5l5.4-3.3l5.7-3.2l5.8-2.9l5.9-2.7l5.9-2.5l6.1-2.2l6.3-1.8l0.1,0l0.4,0.1l0.2,0.4l-0.2,10.3l-0.9,10.1l-1.6,9.9
	l-2.3,9.6l-3,9.3l-3.6,9l-4.3,8.6l-4.9,8.3l-3.6,5.2l-3.9,5.1l-4.1,4.8l-4.4,4.6l-5.5,5.1l-3.9,3.2l-4,3l-4.1,2.8l-4.4,2.7l-4.6,2.6
	l-4.9,2.5l-11,4.9l-4.4,1.9l-4.1,2.1l-3.9,2.4l-3.7,2.6l-3.7,3.1l-3.5,3.4l-3.4,3.8l-3.3,4.2l-3.7,5.3l-3.7,5.8l-3.6,6.3l-3.5,6.8
	l-1.2,2.7l-0.8,2.7l-0.5,2.6l-0.2,2.5l0.1,65.5l-0.3,9l0,0.2l0.4,0.1l0.4-0.2l3.5-6.2l2.4-4.7l1.9-4.4l1.4-4.3l3.7-13.2l3.8-12.7
	l2.2-6.3l3.1-7.2l2.5-5.2l2.7-5.1l3-5.1l3.2-5l3.5-5l3.7-4.9l3.9-4.8l4.2-4.8l4-4.1l6.2-5.9l7.2-6.3l7.8-6l8.1-5.6l8.6-5.2l9-4.8
	l9.3-4.3l9.7-3.9l9.9-3.4l12.9-3.8l12.1-3l11.8-2.2l11.6-1.5l0.3,0.1l0.1,0.3v0.6l-0.1,0.5l-2.5,6.9l-2.7,6.8L491,249l-3.2,6.6l0,0
	l-5.5,10.3l-6,10.1l-6.6,9.8l-7.1,9.5l-7.6,9.2l-8.1,8.6l-8.5,8.1l-9,7.5l0,0l0,0l-8.6,6.4l-9,6l-9.3,5.5l-9.7,5l-7.3,3.3l-10.4,4.3
	l-14.2,6l-3.5,1.8l0,0l-4.3,2.6l-4,3l-3.8,3.4l-3.6,3.9l-5.5,6.9l-5,7.5l-4.5,8l-4,8.6l-0.6,1.7l-0.4,1.8l-0.3,4.1l0.2,63.7
	l-0.1,2.4l-0.1,2.7l0.1,0.7l0.2,0.3l0,0l0,0l0.3-0.1l0.4-0.5l5.1-9.2l1.9-4l1.6-3.9l3.7-10.2l4.4-12.1l3.8-8.6l3.5-6.9l3.5-6.3
	l3.5-5.8l3.6-5.2l6.4-8.2l7.1-7.9l7.7-7.6l8.3-7.3l0.4-0.3l0,0l0,0l7.6-5.8l8-5.3l8.4-4.8l8.8-4.4l12-5l12.4-4.4l12.8-3.8l13.1-3.1
	l13.1-2.3l13.2-1.6l13.2-0.9l13-0.1l0.6,0.3l0.1,0.6l0,0.1l-3.3,7.4l-3.6,7.3l-3.8,7.1l-4.1,6.9l-4.3,6.8l-4.5,6.6l-4.7,6.3
	l-4.9,6.2l-5.1,5.9l-5.3,5.7l-5.5,5.4l-5.6,5.2l-5.8,4.9l-6,4.7l-6.1,4.4l-6.2,4.1l-8,4.7l0,0l-8.9,4.6l-9.2,4.1l-9.4,3.6l-9.7,3.1
	l-12.5,3.5l-13,3.3l-6.5,1.9l-2.7,0.9l-5.4,1.8l-2.9,1.3l-2.8,1.5l-2.8,1.8l-2.7,2l-2.7,2.2l-2.6,2.4l-5,5.4l-4.7,6.3l-4.2,6.9
	l-3.7,7.4l-3,7.7l-0.5,2.2l-0.2,3l0,88.9l-0.1,5.3l-0.2,1.8l-0.6,1.6l-1,1.5l-1.3,1.2l-1.6,1l-1.8,0.6l-1.8,0.2l-1.8-0.2l-1.6-0.6
	l-1.4-0.9l-0.9-1l-0.7-1.3l-0.5-1.4l-0.3-1.6l-0.3-10.2l0.1-81.9l-0.2-3.4l-0.6-3.4l-0.9-3.4l-1.3-3.5l-2.2-4.7l-2.4-4.5l-2.6-4.4
	l-2.8-4.2l0,0l-4.8-6.3l-2.4-2.7l-2.5-2.5l-2.6-2.3l-2.8-2.1l-4.2-2.7l-4.5-2.3l-4.8-2l-5-1.5l-10.6-2.6l-14-3.6l-10-3l-8.8-3.2
	l-8.7-3.5l-6.1-2.7l-6.1-2.9l-7.1-3.8l-6.9-4.2l-6.9-4.6l-6.6-4.9l-6.5-5.3l-6.3-5.6l-6.1-6l-5.9-6.2l-5.7-6.6l-5.4-6.8l-5.2-7.2
	l-4.9-7.4l-4.6-7.6l-4.3-7.8l-4-8l-3.7-8.2l-0.6-2l0.1-0.5l0.4-0.2l12.4,0l12.3,0.7l12.2,1.3l12,1.9l0,0l0,0l6.8,1.4l6.7,1.6
	l6.7,1.8l6.6,2l6.6,2.2l6.6,2.4l6.5,2.6l6.5,2.8l7.9,3.8l7.7,4.3l7.6,4.8l7.3,5.2l7,5.6l6.7,5.9l6.3,6.2l5.9,6.5l3.7,4.5l3.7,5
	l3.5,5.2l3.4,5.5l3.2,5.7l2.9,5.7l2.6,5.8l2.3,5.7l2.6,7.1l4.1,11l3.3,8l3.4,6.9l3.6,6.2l0.5,0.5L305.9,487.6z"/>
<path class="st0" d="M47.7,424.2l3.8,8.3l4.1,8.2l4.3,8.1l4.6,8l4.8,7.8l5.1,7.7l5.3,7.5l5.6,7.4l5.8,7.1l6,7l6.1,6.7l6.4,6.5
	l6.5,6.2l6.7,6l6.9,5.7l7,5.5l8.1,5.9l8.3,5.7l8.4,5.4l8.5,5.1l8.6,4.8l8.7,4.5l8.9,4.2l9,3.9l0,0l0,0l13,5l13.2,4.5l13.5,3.8
	l13.7,3.2l4.4,1.1l3.2,1.2l2.4,1.4l1.8,1.8l0.9,1.4l0.7,1.6l0.4,1.8l0.2,2l-0.1,1.9l-0.3,1.9l-0.6,1.8l-0.9,1.7l-1,1.4l-1.2,1.2
	l-1.3,0.9l-1.5,0.6l-1.6,0.3l-3.3-0.1l-3.4-0.4l-12.9-2.7l-12.8-3.2l-12.7-3.8l-12.6-4.3l-12.4-4.8l-12.2-5.4l-12-5.9l-11.7-6.3
	L147,574l-11.1-7.3l-10.7-7.7l-10.4-8.1l-10-8.5l-9.6-8.9l-9.1-9.2l-8.8-9.6l-6.2-7.3l-5.9-7.4l-5.7-7.5l-5.4-7.7l-5.2-7.8l-4.9-7.9
	l-4.7-8L35,453l0,0l0,0l0,0l-4.6-9.2l-4.3-9.4l-4-9.6l-3.7-9.7l-3.4-9.9l-3.1-10l-2.8-10.2l-2.4-10.4l-1.9-9.7L3.2,355l-1.3-10.1
	l-1-10.1l-0.6-10l-0.3-10l0-10l0.3-10l0.6-9.9l0.9-9.9l0,0l0,0l0,0l0,0l1.4-10.7L5,253.7l2.1-10.6l2.5-10.5l2.8-10.5l3.2-10.5
	l3.6-10.4l3.9-10.4l3.9-9.2l4.2-8.9l4.1-7.9l4.3-7.8l4.5-7.6l4.7-7.5l4.9-7.3l5-7.2l5.2-7l5.4-6.9l0,0l0,0l0,0l8.6-10.2l9.1-9.8
	l9.5-9.4l9.9-9.1l6.6-5.6l6.8-5.5l6.9-5.3l7.1-5.1l7.2-4.9l7.4-4.8l7.5-4.6l7.7-4.4l10.4-5.6l10.7-5.2l11-4.8l11.3-4.4l11.6-3.9
	l11.9-3.5l12.2-3.1l12.5-2.7l1.7-0.4l3.8-0.7l2.8-0.2l2.3,0.3l2,0.9l1.7,1.5l1.2,1.7l0.9,1.7l0.6,1.8l0.3,1.8l0,0l0,2.1l-0.4,2.2
	l-0.8,2.2l-1.2,2.3l-1.6,1.9l-1.8,1.2l-2.1,0.8l-10.7,2.5l-13.1,3.3l-12.9,3.8l-12.6,4.4l-12.4,5l0,0l0,0l0,0l0,0l0,0l-11.3,5.1
	l-11.1,5.6l-10.9,6.1l-10.7,6.6l-10.5,7.1l-10.3,7.6l-10.1,8.1l-9.8,8.6l-7.4,7l-7.2,7.3l-6.9,7.5l-6.7,7.8l-6.4,8l-6.1,8.2
	l-5.9,8.4l-5.6,8.6l-5.2,8.8l-4.9,8.9l-4.5,9l-4.2,9.1l-3.8,9.2l-3.4,9.3l-3.1,9.3l-2.7,9.4L31,246.3l-1.7,7.5l-1.4,7.6l-1.2,7.7
	l-1,7.7l-0.8,7.8l-0.6,7.8l-0.4,7.8l-0.1,7.8l0.1,7.9l0.3,7.9l0.5,7.9l0.7,7.9l1,7.9l1.2,7.9l1.4,7.8l1.6,7.8l3.4,13.8l4,13.5
	l4.6,13.1L47.7,424.2z"/>
<path class="st0" d="M441.4,49.7l-9-4.4l-9.2-4.1l-9.4-3.8l-9.6-3.5l-9.8-3.2l-10-2.9l-10.2-2.6L363.4,23l-2.2-0.7l-1.9-1l-1.9-1.7
	l-1.5-2.1l-1-2.4l-0.5-2.6V9.8l0.5-2.6l1-2.3l1.6-2.1l0.8-0.8l0.1-0.1l1.9-1.1l2.4-0.5l3,0l4,0.6l0.4,0.1l13.5,2.7L396,6.8l9.5,2.9
	l9.4,3.1l9.2,3.4l9.1,3.7l8.9,3.9l8.8,4.2l8.6,4.4l8.5,4.7l0,0l0,0l0,0l0,0l8.3,4.9l8.1,5.2l8,5.4l7.8,5.7l7.7,5.9l7.5,6.2l7.4,6.5
	l7.2,6.7l7.2,7.1l7,7.3l6.7,7.5l6.5,7.7l6.2,7.9l5.9,8.1l5.7,8.2l5.4,8.4l5.1,8.5l4.8,8.6l4.5,8.8l4.3,8.9l4,9l3.7,9.1l3.4,9.3
	l3.1,9.4l2.5,8.7l2.4,9.2l2.1,9.2l1.8,9.2l1.6,9.2l1.3,9.2l1,9.3l0.7,9.3l0.4,9.3l0,0l0,0l0,0l0.1,11.1l-0.3,11.1l-0.7,11.1
	l-1.1,11.1l-1.5,11.1l-1.9,11.1l-2.3,11.2l-2.7,11.2l-2.2,8.1l-2.4,8l-2.6,7.9l-2.8,7.8l-3,7.7l-3.2,7.6l-3.4,7.5l-3.6,7.4l-5,9.4
	l-5.3,9.2l-5.7,9.1l-6,8.9l-6,8.3l-6.2,8.1l-6.5,7.8l-6.7,7.6l-6.9,7.3l-7.1,7.1l-7.3,6.8l-7.5,6.6l0,0l0,0l-9.2,7.4l-9.8,7.4l-10,7
	l-10.1,6.5l-10.3,6.1l-10.5,5.7l-10.6,5.3l-10.8,4.8l-10.9,4.4l0,0l-13.3,4.7l-13.5,4.1l-13.8,3.5l-14,2.9l-3.9,0.6l-2.9,0.1
	l-2.4-0.4l-2-1l-1-0.8l-0.9-1l-1.2-2l-0.8-2.2l-0.5-2.4l0-2.4l0.4-2.3l0.8-2.1l1.1-1.8l1.5-1.6l2.2-1.4l2.5-0.9l18.6-4.4l13.9-3.9
	l10.5-3.5l10.3-3.8l10.1-4.2l10-4.6l0,0l12.9-6.6l12.6-7.2l12.3-7.8l12-8.4l5-3.8l9.9-8l9.5-8.4l9.2-8.9l8.8-9.2l8.4-9.6l7.9-10
	l7.5-10.3l7-10.6l6.5-10.9l6-11.2l5.5-11.5l5-11.7l4.5-11.9l4-12.1l3.4-12.2l2.9-12.4l0.9-4.4l1.9-10.8l1.5-10.5l1.1-10.1l0.6-9.7
	l0.2-9.1l0-9.1l-0.3-9l-0.6-9l-0.9-9l-1.2-9l-1.5-8.9l-1.7-8.9l-1.8-7.9l-2-7.9l-2.2-7.8l-2.4-7.8l-2.7-7.7l-2.9-7.6l-3.1-7.5
	l-3.3-7.4l-3.5-7.4l-3.7-7.2l-3.9-7.2l-4.1-7.1l-4.3-6.9l-4.5-6.8l-4.7-6.7l-4.9-6.6l-4.8-6l-5.1-6l-5.6-6.2l-6.5-6.8l-7.6-7.6
	l-7.8-7.2l-8-6.9l-8.1-6.6l-8.3-6.3l-8.5-6l-8.7-5.7l-8.9-5.3l0,0l0,0L441.4,49.7z"/>
<path class="st1" d="M313.7,102.7L313.7,102.7c1,0,1.8,0.8,1.8,1.7v70c0,0.9-0.8,1.7-1.7,1.7h-0.1c-0.9,0-1.7-0.8-1.7-1.7v-70
	C312,103.5,312.8,102.7,313.7,102.7z"/>
<path class="st1" d="M233.1,196.3l7.7,10.6l9.5,13.3l0.3,0.4l0.9,1.6l0.9,2.2l0.1,0.6l-0.1,0.4l-0.4,0.1l-0.6-0.2l-0.8-0.5l-0.6-0.6
	l-7.5-9.6l-7.1-9.4l-6.8-9.3l-6.4-9.1l-0.3-0.6l0-0.5l0,0l0.3-0.3l0.6-0.2l0.4,0l1,0.2l0.8,0.4l0.6,0.6L233.1,196.3z"/>
<path class="st1" d="M403.4,184.3l0.2,0l0.3,0.2l0,0l0.6,0.9l0,1.3l-0.5,1.6l-1,1.6l-23.7,32.1l-1.3,1.4l-1.4,1l-1.3,0.4l-1-0.3
	l-0.3-0.2l0-0.2L403.4,184.3z"/>
<path class="st1" d="M246.5,328.4l-3.6-3l-4.5-4.2l-46.4-44l-1.3-1.4l-0.9-1.5l-0.3-0.9l0.1-0.5l0,0l0.5-0.1l0.9,0.3l1.8,1l1.6,1.2
	l25.4,23.9l25,24.2l1.7,1.8l1.5,2.1l0.1,0.4l-0.2,0.4l-0.8,0.3L246.5,328.4z"/>
<path class="st1" d="M436.8,273.1l0.7,0.1l0.4,0.6l-0.2,0.8l-1.8,2.4l-1.8,1.9l-26.1,24.6l-24,22.9l-1.5,1.3l-1.8,1.1l-0.5,0.1
	l-0.4-0.2l-0.3-0.4l-0.1-0.4l0.3-0.6l5.5-5.8l6-5.9l23.4-22.3l19.8-18.5l1.2-0.9L436.8,273.1z"/>
<path class="st1" d="M198.7,403.1l-6-4.2l-5.7-4.3l-1-0.9l-0.2-0.7l0,0l0.5-0.4l1.1-0.2l0.8,0.2l1.1,0.6l12.4,8.4l12.4,8.6l12.3,8.8
	l12.2,9l0.7,0.8l0.5,1.2l0,0.2l-0.1,0.3l-0.8,0.5l-0.9-0.3L198.7,403.1z"/>
<path class="st1" d="M390.6,429.8l-2.1,1.1l-0.7,0.1l-0.5-0.2l0,0l-0.3-0.4l-0.1-0.6l0.1-0.5l0.3-0.4l15.9-11.9l17.1-12.3l17.4-11.9
	l0.8-0.3l0.7,0l0.4,0.2l0.3,0.3l0.1,0.4l-0.1,0.5l0,0l-0.1,0.2l-1.8,1.9l-2,1.6L413,413.9l-20.3,14.5L390.6,429.8z"/>
</svg>
